# xmcd
#
# Track frame offsets:
#	150
#	17326
#	35677
#	54531
#	72693
#	92089
#	113012
#	135780
#	157896
#	184304
#	201957
#	224667
#	244641
#	263696
#	281201
#	301879
#
# Disc length: 4290 seconds
#
# Revision: 1
# Processed by: cddbd v1.5.2PL0 Copyright (c) Steve Scherf et al.
# Submitted via: audiograbber 1.83.01
#
DISCID=e410c010
DTITLE=David, Anthony - The Red Clay Chronicles
DYEAR=2006
DGENRE=R&B
TTITLE0=Stop Playin´
TTITLE1=Smoke One
TTITLE2=Everything Is Everything
TTITLE3=Words
TTITLE4=On and On
TTITLE5=Lady
TTITLE6=ATL Sunshine
TTITLE7=Something About You
TTITLE8=Sho Nuff
TTITLE9=Better Than
TTITLE10=Red Clay Chronicles
TTITLE11=Kin Folk
TTITLE12=Smoke One With Earl (feat. Eral Klugh)
TTITLE13=50/50 Love (feat. Julie Dexter)
TTITLE14=GA Peach (RMX)
TTITLE15=Spittin Game
EXTD=
EXTT0=
EXTT1=
EXTT2=
EXTT3=
EXTT4=
EXTT5=
EXTT6=
EXTT7=
EXTT8=
EXTT9=
EXTT10=
EXTT11=
EXTT12=
EXTT13=
EXTT14=
EXTT15=
PLAYORDER=
